<svg id="Layer_1" enable-background="new 0 0 70 70" height="512" viewBox="0 0 70 70" width="512" xmlns="http://www.w3.org/2000/svg"><path d="m42.6552734 57.5961914c.5522461 0 1-.4477539 1-1 0-5.7104492 2.0058594-11.0444336 5.6474609-15.0200195 3.2792969-3.5795898 5.0849609-8.2260742 5.0849609-13.0839844 0-5.5009766-2.3496094-10.7631836-6.4462891-14.4375-4.1538086-3.7250977-9.5185547-5.4394531-15.1171875-4.831543-8.9609375.9775391-16.152832 8.1967773-17.1005859 17.1650391-.5830078 5.5146484 1.2001953 11.0170898 4.8920898 15.0966797 3.6879883 4.0756836 5.7192383 9.4370117 5.7192383 15.1113281 0 .5522461.4477539 1 1 1h.5727539v2.4326172h-.746582c-.5522461 0-1 .4477539-1 1s.4477539 1 1 1h.746582v1.7822266c0 .2651367.1054688.5195312.2929688.7070312l3.1889648 3.1889648c.1875001.1875.4418947.2929688.7070314.2929688h5.8066406c.2651367 0 .5195312-.1054688.7070312-.2929688l3.1889648-3.1889648c.1875-.1875.2929688-.4418945.2929688-.7070312v-1.7822266h.746582c.5522461 0 1-.4477539 1-1s-.4477539-1-1-1h-.746582v-2.4326172zm-20.5566406-17.453125c-3.359375-3.7124023-4.9169922-8.5224609-4.3857422-13.5449219.8491211-8.0395508 7.2958984-14.5102539 15.328125-15.3867188 5.0258789-.5498047 9.8393555.9912109 13.5649414 4.3325195 3.6743164 3.2949219 5.7817383 8.0146484 5.7817383 12.9482422 0 4.3564453-1.6191406 8.5234375-4.5595703 11.7333984-3.7666016 4.1113281-5.9316406 9.5366211-6.1538086 15.3706055h-5.6743164v-21.2460326c2.6033325-.4732666 4.5849609-2.7525024 4.5849609-5.4902954 0-3.0795898-2.5053711-5.5849609-5.5849609-5.5849609s-5.5849609 2.5053711-5.5849609 5.5849609c0 2.737793 1.9816284 5.0170288 4.5849609 5.4902954v21.2460327h-5.684082c-.2231446-5.7924805-2.4111328-11.2475586-6.2172852-15.453125zm12.9013672-7.6982422c-1.9765625 0-3.5849609-1.6083984-3.5849609-3.5849609s1.6083984-3.584961 3.5849609-3.584961 3.5849609 1.6083984 3.5849609 3.5849609-1.6083984 3.584961-3.5849609 3.584961zm5.0922852 30.9521485-2.6030274 2.6030273h-4.9785156l-2.6030273-2.6030273v-1.3681641h10.1845703zm0-3.3681641h-10.1845704v-2.4326172h10.1845703v2.4326172z"/><path d="m35.5771484 6.2363281v-3.2363281c0-.5522461-.4477539-1-1-1s-1 .4477539-1 1v3.2363281c0 .5522461.4477539 1 1 1s1-.4477539 1-1z"/><path d="m23.5351562 10.421875c.1694336 0 .3417969-.0429688.4990234-.1337891.4785156-.2763672.6420898-.8876953.3662109-1.3662109l-1.6181641-2.8027344c-.2773438-.4785156-.8886719-.6435547-1.3662109-.3662109-.4785155.2763672-.6420897.8876953-.3662108 1.3662109l1.6181641 2.8027344c.1855468.3208008.5214843.5.8671874.5z"/><path d="m15.0634766 18.5683594c.1577148.0908203.3295898.1337891.4990234.1337891.3457031 0 .6816406-.1791992.8671875-.5.2758789-.4785156.1118164-1.0898438-.3662109-1.3662109l-2.8032227-1.6181641c-.4799805-.2768555-1.0898438-.1123047-1.3662109.3662109-.2758789.4785156-.1118164 1.0898438.3662109 1.3662109z"/><path d="m8.5639648 28.8583984c0 .5522461.4477539 1 1 1h3.2363281c.5522461 0 1-.4477539 1-1s-.4477539-1-1-1h-3.2363281c-.552246 0-1 .4477539-1 1z"/><path d="m13.184082 42.5200195c.1694336 0 .3417969-.0429688.4990234-.1337891l2.8027344-1.6181641c.4785156-.2763672.6420898-.8876953.3662109-1.3662109-.2768555-.4785156-.8891602-.6425781-1.3662109-.3662109l-2.8027344 1.6181641c-.4785156.2763672-.6420898.8876953-.3662109 1.3662109.1855469.3208008.5214844.5.8671875.5z"/><path d="m53.9365234 40.0361328 2.8032227 1.6181641c.1577148.0908203.3295898.1337891.4990234.1337891.3457031 0 .6816406-.1791992.8671875-.5.2758789-.4785156.1118164-1.0898438-.3662109-1.3662109l-2.8032227-1.6181641c-.480957-.2763672-1.0898438-.1123047-1.3662109.3662109-.2758789.4785156-.1118164 1.0898437.3662109 1.3662109z"/><path d="m61.4360352 28.0131836c0-.5522461-.4477539-1-1-1h-3.2363282c-.5522461 0-1 .4477539-1 1s.4477539 1 1 1h3.2363281c.5522461 0 1.0000001-.4477539 1.0000001-1z"/><path d="m54.0151367 17.9702148c.1694336 0 .3417969-.0429688.4990234-.1337891l2.8027344-1.6181641c.4785156-.2763672.6420898-.8876953.3662109-1.3662109-.2768555-.4785156-.8891602-.6430664-1.3662109-.3662109l-2.8027344 1.6181641c-.4785156.2763672-.6420898.8876953-.3662109 1.3662109.1855469.3208008.5214844.5.8671875.5z"/><path d="m45.7329102 9.9990234c.3457031 0 .6816406-.1791992.8671875-.5l1.6181641-2.8027344c.2758789-.4785156.1123047-1.0898438-.3662109-1.3662109-.4804688-.2773438-1.090332-.1118164-1.3662109.3662109l-1.6181641 2.8027344c-.2758789.4785156-.1123047 1.0898438.3662109 1.3662109.1577148.0908204.3295898.1337891.4990234.1337891z"/></svg>